<?xml version="1.0" encoding="UTF-8" standalone="no"?><!DOCTYPE svg PUBLIC "-//W3C//DTD SVG 1.1//EN" "http://www.w3.org/Graphics/SVG/1.1/DTD/svg11.dtd"><svg width="100%" height="100%" viewBox="0 0 2813 584" version="1.1" xmlns="http://www.w3.org/2000/svg" xmlns:xlink="http://www.w3.org/1999/xlink" xml:space="preserve" xmlns:serif="http://www.serif.com/" style="fill-rule:evenodd;clip-rule:evenodd;stroke-linecap:round;stroke-linejoin:round;stroke-miterlimit:1.5;"><clipPath id="_clip1"><rect id="BugTracks.svg" x="0" y="0" width="2812.04" height="583.946"/></clipPath><g clip-path="url(#_clip1)"><path d="M289.962,458.771c54.997,195.87 428.781,124.483 527.56,-42.852c140.147,-237.415 275.165,-371.26 497.403,-336.074c345.569,54.713 376.331,441.059 -20.681,435.108c-238.686,-3.58 -220.456,-272.459 -0,-272.459c285.784,0 177.858,245.589 649.052,245.589c350.417,0 205.12,-477.59 0,-441.156c-157.656,28.003 -174.012,250.471 -13.888,250.471c289.991,0 223.572,-290.459 608.924,-290.459c245.9,-0 369.494,308.998 158.241,308.998" style="fill:none;stroke:#f8924e;stroke-width:23.13px;stroke-dasharray:23.13,46.27,23.13,0;"/><g><path d="M251.455,272.908c46.467,-47.711 -3.655,-90.435 -3.655,-90.435l18.435,-7.235c18.048,-8.075 90.031,31.779 39.805,85.668c78.125,21.898 85.97,168.34 -36.558,177.666c63.017,-54.071 37.777,-145.341 -18.027,-165.664Z" style="fill:#fff;"/><path d="M251.674,313.895c-9.711,-46.028 -37.299,-38.663 -51.089,-53.684c-19.293,-21.014 2.413,-55.993 16.245,-71.203l-16.24,0.079c-29.562,1.97 -69.055,49.848 -15.035,97.237c-49.562,48.838 -1.676,186.831 92.06,150.533c-53.569,8.128 -84.369,-75.76 -76.533,-128.108c1.27,-8.484 48.676,-3.017 45.827,85.278c0,-0 11.045,-50.362 4.765,-80.132Z" style="fill:#f8924e;"/><path d="M216.834,189.021c5.797,-16.011 22.929,-15.273 31.074,-6.557l20.491,-7.916c-23.056,-21.19 -66.29,-11.063 -75.291,16.015l23.726,-1.542Z" style="fill:#f8924e;"/><path d="M320.372,256.599l18.273,-27.519l-6.139,-41.156l16.514,-44.558" style="fill:none;stroke:#f8924e;stroke-width:9.25px;"/><path d="M327.294,263.901l21.726,-1.86l34.596,35.357l47.843,21.775l14.639,20.403" style="fill:none;stroke:#f8924e;stroke-width:9.25px;"/><path d="M420.393,422.646l-17.166,-43.818l-11.321,-12.828l-20.437,-54.274l-13.045,-14.328" style="fill:none;stroke:#f8924e;stroke-width:9.25px;"/><path d="M136.59,472.499l2.391,-49.958l7.275,-18.897l0,-53.381l11.293,-15.046" style="fill:none;stroke:#f8924e;stroke-width:9.25px;"/><path d="M91.163,413.088l6.061,-22.291l31.346,-41.308l24.59,-49.109l17.973,-6.826" style="fill:none;stroke:#f8924e;stroke-width:9.25px;"/><path d="M176.815,284.656l-24.538,-17.352l-9.773,-40.515l-25.18,-36.379" style="fill:none;stroke:#f8924e;stroke-width:9.25px;"/><path d="M247.316,155.636c-0,0 -25.235,-61.515 20.444,-83.996" style="fill:none;stroke:#f8924e;stroke-width:9.25px;"/><path d="M195.454,170.226c0,-0 -22.481,-64.653 -65.528,-59.564" style="fill:none;stroke:#f8924e;stroke-width:9.25px;"/></g><g><text x="-19.576px" y="434.798px" style="font-family:'Poppins-Bold', 'Poppins';font-weight:700;font-size:369.361px;fill:#fff;">{</text><text x="149.591px" y="434.798px" style="font-family:'Poppins-Bold', 'Poppins';font-weight:700;font-size:369.361px;fill:none;">B</text><text x="390.787px" y="434.798px" style="font-family:'Poppins-Bold', 'Poppins';font-weight:700;font-size:369.361px;fill:#fff;">UG} TRACKS</text></g></g></svg>