<?xml version="1.0" encoding="UTF-8" standalone="no"?><!DOCTYPE svg PUBLIC "-//W3C//DTD SVG 1.1//EN" "http://www.w3.org/Graphics/SVG/1.1/DTD/svg11.dtd"><svg width="100%" height="100%" viewBox="0 0 1921 1080" version="1.1" xmlns="http://www.w3.org/2000/svg" xmlns:xlink="http://www.w3.org/1999/xlink" xml:space="preserve" xmlns:serif="http://www.serif.com/" style="fill-rule:evenodd;clip-rule:evenodd;stroke-linejoin:round;stroke-miterlimit:2;"><g id="Background"><path d="M1920,1080c-0.761,-222.905 0.761,-394.392 0,-617.297c-152.647,340.245 -593.782,0 -959.187,0c-199.99,3.314 -960.813,240.48 -960.813,-349.404l0,-113.299l1920,0l0,1080Z" style="fill:url(#_Radial1);"/><path d="M1920,1080l-1920,0l0,-967.256c224.895,581.314 699.969,258.498 960.563,258.498c260.595,0 704.931,301.901 959.437,91.461l0,617.297Z" style="fill:url(#_Radial2);"/><path d="M0,970.5c51.908,-19.645 128.378,-39.485 216.158,-25.5c50.545,8.055 73.697,22.36 127.594,37.5c98.81,27.755 179.436,24.17 250.683,21c152.747,-6.795 242.893,-50.395 401.369,-68.105c69.271,-7.745 118.047,-12.185 191.18,-8.19c226.801,12.395 347.415,74.005 532.26,8.545c93.313,-33.045 158.87,-82.994 200.756,-119.719l0,263.969l-1920,0l0,-109.5Z" style="fill:#fff;fill-rule:nonzero;"/></g><defs><radialGradient id="_Radial1" cx="0" cy="0" r="1" gradientUnits="userSpaceOnUse" gradientTransform="matrix(2484.19,0,0,2482.37,717.797,-312.094)"><stop offset="0" style="stop-color:#6f42c1;stop-opacity:1"/><stop offset="0.46" style="stop-color:#534fd2;stop-opacity:1"/><stop offset="1" style="stop-color:#0d6efd;stop-opacity:1"/></radialGradient><radialGradient id="_Radial2" cx="0" cy="0" r="1" gradientUnits="userSpaceOnUse" gradientTransform="matrix(2485.68,0,0,2220.99,233.332,-722.997)"><stop offset="0" style="stop-color:#0d6efd;stop-opacity:1"/><stop offset="0.56" style="stop-color:#524fd3;stop-opacity:1"/><stop offset="1" style="stop-color:#6f42c1;stop-opacity:1"/></radialGradient></defs></svg>