<?xml version="1.0" encoding="UTF-8" standalone="no"?><!DOCTYPE svg PUBLIC "-//W3C//DTD SVG 1.1//EN" "http://www.w3.org/Graphics/SVG/1.1/DTD/svg11.dtd"><svg width="100%" height="100%" viewBox="0 0 2533 526" version="1.1" xmlns="http://www.w3.org/2000/svg" xmlns:xlink="http://www.w3.org/1999/xlink" xml:space="preserve" xmlns:serif="http://www.serif.com/" style="fill-rule:evenodd;clip-rule:evenodd;stroke-linecap:round;stroke-linejoin:round;stroke-miterlimit:1.5;"><path d="M261.189,413.246c49.539,176.434 386.232,112.131 475.209,-38.599c126.24,-213.856 247.86,-334.42 448.045,-302.725c311.278,49.284 338.987,397.292 -18.629,391.931c-215.001,-3.224 -198.58,-245.422 -0,-245.422c257.425,0 160.209,221.219 584.646,221.219c315.644,0 184.765,-430.198 -0,-397.38c-142.012,25.225 -156.745,225.617 -12.51,225.617c261.215,0 201.386,-261.637 548.499,-261.637c221.499,0 332.829,278.336 142.539,278.336" style="fill:none;stroke:#dc3545;stroke-opacity:0.6;stroke-width:12.5px;stroke-dasharray:12.5,25,12.5,0;"/><g transform="matrix(1,0,0,1,-695.811,-711.688)"><text x="678.178px" y="1103.34px" style="font-family:'Poppins-Bold', 'Poppins';font-weight:700;font-size:332.709px;fill:#fff;">{</text><text x="830.558px" y="1103.34px" style="font-family:'Poppins-Bold', 'Poppins';font-weight:700;font-size:332.709px;fill:none;">B</text><text x="1047.82px" y="1103.34px" style="font-family:'Poppins-Bold', 'Poppins';font-weight:700;font-size:332.709px;fill:#fff;">UG} TRACKS</text></g><g><path d="M226.503,245.827c41.856,-42.977 -3.293,-81.461 -3.293,-81.461l16.606,-6.517c16.257,-7.274 81.097,28.625 35.855,77.167c70.373,19.725 77.439,151.635 -32.93,160.036c56.764,-48.706 34.028,-130.919 -16.238,-149.225Z" style="fill:#fff;"/><path d="M226.7,282.747c-8.747,-41.461 -33.598,-34.827 -46.019,-48.357c-17.379,-18.929 2.173,-50.437 14.633,-64.138l-14.629,0.072c-26.628,1.774 -62.202,44.901 -13.543,87.588c-44.644,43.991 -1.51,168.291 82.925,135.595c-48.253,7.321 -75.997,-68.242 -68.939,-115.396c1.144,-7.642 43.846,-2.717 41.28,76.816c-0,-0 9.949,-45.364 4.292,-72.18Z" style="fill:#cd1919;"/><path d="M226.7,282.747c-8.747,-41.461 -33.598,-34.827 -46.019,-48.357c-17.379,-18.929 2.173,-50.437 14.633,-64.138l-14.629,0.072c-26.628,1.774 -62.202,44.901 -13.543,87.588c-44.644,43.991 -1.51,168.291 82.925,135.595c-48.253,7.321 -75.997,-68.242 -68.939,-115.396c1.144,-7.642 43.846,-2.717 41.28,76.816c-0,-0 9.949,-45.364 4.292,-72.18Zm-1.409,0.298c3.545,16.801 0.897,40.945 -1.532,56.445c-2.112,-44.917 -20.533,-61.033 -32.311,-64.568c-3.673,-1.102 -6.787,-1.01 -8.772,-0.259c-1.769,0.669 -2.767,1.865 -2.972,3.235c-4.283,28.618 4.109,67.58 22.049,92.572c9.959,13.875 22.846,23.452 38.09,24.807c-44.548,11.289 -75.75,-22.952 -85.721,-61.575c-7.123,-27.588 -3.497,-57.493 14.031,-74.764c0.284,-0.281 0.44,-0.668 0.428,-1.067c-0.011,-0.4 -0.189,-0.777 -0.49,-1.041c-14.278,-12.526 -21.186,-25.063 -23.095,-36.562c-4.393,-26.469 17.736,-47.265 35.728,-48.504c0.013,-0.001 11.405,-0.057 11.405,-0.057c-7.272,8.635 -15.957,22.175 -18.802,35.576c-2.147,10.116 -0.992,20.146 6.293,28.081c5.094,5.549 12.197,7.844 19.497,11.256c10.382,4.853 21.072,12.24 26.174,36.425l-0,-0Z" style="fill:#dc3545;"/><path d="M195.317,170.264c5.222,-14.422 20.654,-13.757 27.991,-5.906l18.457,-7.131c-20.768,-19.087 -59.712,-9.965 -67.819,14.426l21.371,-1.389Z" style="fill:#dc3545;"/><path d="M288.581,231.136l16.46,-24.788l-5.53,-37.072l14.875,-40.136" style="fill:none;stroke:#dc3545;stroke-width:8.33px;"/><path d="M294.816,237.714l19.57,-1.676l31.163,31.849l43.096,19.614l13.186,18.378" style="fill:none;stroke:#dc3545;stroke-width:8.33px;"/><path d="M378.677,380.706l-15.463,-39.47l-10.197,-11.555l-18.409,-48.888l-11.751,-12.906" style="fill:none;stroke:#dc3545;stroke-width:8.33px;"/><path d="M123.036,425.612l2.154,-45l6.553,-17.022l0,-48.084l10.172,-13.553" style="fill:none;stroke:#dc3545;stroke-width:8.33px;"/><path d="M82.117,372.097l5.459,-20.079l28.236,-37.209l22.15,-44.236l16.189,-6.149" style="fill:none;stroke:#dc3545;stroke-width:8.33px;"/><path d="M159.269,256.409l-22.103,-15.63l-8.803,-36.495l-22.681,-32.769" style="fill:none;stroke:#dc3545;stroke-width:8.33px;"/><path d="M222.774,140.192c-0,0 -22.73,-55.411 18.416,-75.661" style="fill:none;stroke:#dc3545;stroke-width:8.33px;"/><path d="M176.059,153.334c0,-0 -20.25,-58.237 -59.026,-53.653" style="fill:none;stroke:#dc3545;stroke-width:8.33px;"/></g></svg>